# xmcd
#
# Track frame offsets:
#	183
#	10750
#	21435
#	32320
#	43068
#	53523
#	64128
#	74150
#	84610
#	96378
#	110203
#	121858
#	133250
#	144990
#	156175
#
# Disc length: 2246 seconds
#
# Revision: 1
# Processed by: cddbd v1.5.2PL0 Copyright (c) Steve Scherf et al.
# Submitted via: audiograbber 1.83.01
#
DISCID=d408c40f
DTITLE=Patsy Cline, The Legendary - A Collection of Country Classics Disc 1
DYEAR=1996
DGENRE=Country
TTITLE0=I Love You Honey
TTITLE1=Gotta Lot of Rhythm In My Soul
TTITLE2=I Cried All The Way to the Altar
TTITLE3=Honky Tonk Merry Go Round
TTITLE4=Pick Me Up On Your Way Down
TTITLE5=Lovesick Blues
TTITLE6=Turn The Cards Slowly
TTITLE7=Three Cigarettes In An Ashtray
TTITLE8=Never No More
TTITLE9=A Church, A Courtroom, and Then Goodbye
TTITLE10=I've Loved and Lost Again
TTITLE11=Just Out of Reach
TTITLE12=In Care of the Blues
TTITLE13=A Stranger In My Arms
TTITLE14=A Poor Man's Roses
EXTD=Phonographic Performance Ltd.\n(p) 1996 Carlton Home Entertainment Ltd.\n7
EXTD=210057
EXTT0=
EXTT1=
EXTT2=
EXTT3=
EXTT4=
EXTT5=
EXTT6=
EXTT7=
EXTT8=
EXTT9=
EXTT10=
EXTT11=
EXTT12=
EXTT13=
EXTT14=
PLAYORDER=
